<svg xmlns="http://www.w3.org/2000/svg" viewBox="0 0 603 537"><defs><style>.cls-1{fill:#fefefd;}.cls-2{fill:#d22f1a;}.cls-3{fill:#fefefe;}</style></defs><title>vfLogoSvg</title><g id="Layer_2" data-name="Layer 2"><g id="Layer_1-2" data-name="Layer 1"><path class="cls-1" d="M603.5,537.5H.5V.5h603ZM364.5,27a170.78,170.78,0,0,1,39-2.68c2.64.14,5.27.46,8.17.72-.34-.47-.4-.65-.53-.71-.44-.24-.89-.46-1.34-.66A254.28,254.28,0,0,0,293.31,1.85a250.8,250.8,0,0,0-62.09,10.73,254,254,0,0,0-105.67,63.3,255.26,255.26,0,0,0-75,167.1,256.46,256.46,0,0,0,1.3,43.39,251,251,0,0,0,17.42,68,255.16,255.16,0,0,0,243,158.4,250.27,250.27,0,0,0,77.33-14c44.38-15.6,81.84-41.4,112-77.54,34.61-41.46,54.07-89.26,58.71-143a255.34,255.34,0,0,0-46-168.56C490,75.31,459,48.63,421.61,29.17c-5-2.62-9.31-2.67-14.37-1q-49.41,16.12-68.67,64.31c-2.8,7-4,14.71-6,22.08-1.64-1.34-1.73-2.88-1.14-4.88,1.19-4,2.58-8.09,2.93-12.23.45-5.23,3.65-9.22,5.14-13.94.14-.44.69-.75.88-1.19.57-1.32,1-2.71,1.61-4a19.05,19.05,0,0,1,1.83-2.83c.27-.38.8-.56,1.09-.93,2.65-3.42,3.7-7.83,6.95-10.92,1.79-1.7,3.14-3.86,4.89-5.6,3.71-3.71,7.55-7.29,11.34-10.9a32.1,32.1,0,0,1,3.58-3.24c2.35-1.64,4.9-3,7.25-4.65,2.95-2.07,5.19-5.24,9.19-5.63.68-.07,1.3-.69,2-1.05,1-.58,2.08-1.16,3.14-1.71,2.47-1.27,4.94-2.52,7.42-3.77l-.28-.74A4.84,4.84,0,0,0,399,26c-6.16.33-12.32.72-18.49,1-1.86.1-3.75-.13-5.6.06-2.83.3-5.62.94-8.45,1.21C365.88,28.39,365.17,27.47,364.5,27Zm47.58-2,0,.28.8,0,0-.24Z" transform="translate(-0.5 -0.5)"/><path class="cls-2" d="M332.6,114.55c1.95-7.38,3.17-15,6-22.08q19.18-48.14,68.67-64.31c5.06-1.65,9.35-1.6,14.37,1C459,48.63,490,75.31,514.32,109.64a255.34,255.34,0,0,1,46,168.56c-4.64,53.76-24.1,101.55-58.71,143-30.17,36.14-67.63,61.94-112,77.54a250.27,250.27,0,0,1-77.33,14,255.82,255.82,0,0,1-243-158.4,251,251,0,0,1-17.42-68A255.55,255.55,0,0,1,85.62,127.23a251.42,251.42,0,0,1,39.93-51.35,254,254,0,0,1,105.67-63.3A250.8,250.8,0,0,1,293.31,1.85,254.28,254.28,0,0,1,409.8,23.67c.46.2.91.42,1.34.66.12.07.19.24.53.71-2.9-.26-5.53-.58-8.17-.72a170.78,170.78,0,0,0-39,2.68l-1,.17L350.9,29.6l-1.4.35-12.84,3.36-.66.12c-1,.24-2.11.42-3.14.73A267.92,267.92,0,0,0,269.8,62.66a220.71,220.71,0,0,0-88.2,100.87,196.43,196.43,0,0,0-13.42,42L168,207l-2.39,14.51-.16,2-.68,6.53-.27,6.48V250l.27,6.48.71,7,.13,1.48a8.69,8.69,0,0,0,0,1.24c2.58,19.13,7.8,37.46,16.93,54.54,20.08,37.54,50.29,62.81,91.42,74.46,6.67,1.89,13.71,2.5,20.58,3.71l1,.09a50.05,50.05,0,0,0,5.66.53c6.46-.1,12.91-.35,19.37-.54l2-.15,6-.81,1.47-.17a116.46,116.46,0,0,0,31.66-8.66c35.43-15.12,59.86-41.06,74.17-76.59,2.87-7.12,4.42-14.77,6.58-22.17l.18-1a5,5,0,0,0,.37-.91,136.47,136.47,0,0,0,1.88-39.29c-.28-3.13-.88-6.22-1.33-9.34l-.47-3a13.75,13.75,0,0,0-.11-1.73c-6-32.44-22.42-58.16-49.63-76.9C375.39,146,355.47,138.29,334.52,133c-1.81-.46-2.76-1-2.64-3.06.26-4.47.37-9,.54-13.43Z" transform="translate(-0.5 -0.5)"/><path class="cls-3" d="M349.5,30l1.4-.35c.77.47,1.55,1.34,2.31,1.32,2.3-.05,4.59-.48,6.89-.71a3.5,3.5,0,0,0,3.41-3l1-.17c.67.47,1.38,1.39,2,1.33,2.83-.26,5.62-.91,8.45-1.21,1.85-.2,3.74,0,5.6-.06,6.16-.32,12.32-.71,18.49-1a4.84,4.84,0,0,1,1.33.32l.28.74c-2.47,1.26-4.95,2.5-7.42,3.77-1.06.55-2.1,1.14-3.14,1.71-.65.36-1.27,1-2,1.05-4,.4-6.25,3.56-9.19,5.63-2.34,1.65-4.9,3-7.25,4.65a32.1,32.1,0,0,0-3.58,3.24c-3.8,3.62-7.63,7.2-11.34,10.9-1.75,1.75-3.1,3.9-4.89,5.6-3.25,3.08-4.3,7.5-6.95,10.92-.29.37-.82.56-1.09.93A19.05,19.05,0,0,0,342,78.32c-.63,1.29-1,2.68-1.61,4-.19.44-.74.74-.88,1.19-1.49,4.71-4.69,8.71-5.14,13.94-.35,4.13-1.74,8.21-2.93,12.23-.59,2-.5,3.54,1.14,4.88l-.19,2c-.63.49-1.77.94-1.81,1.48-.32,4.13-.55,8.28-.54,12.42,0,2.25,1.26,4.44,3.62,4.29,2.56-.16,4.24,1.27,6.31,2,1.23.44,2.6.47,3.86.83,1.56.44,4.05.65,4.42,1.62,1,2.53,2.9,2,4.61,2.31,1,.18,2.22-.29,3,.17,3.24,2,7,2.78,10.3,4.32,2.15,1,4.43,1.86,6.56,3,2.52,1.31,4.84,3,7.25,4.51a19,19,0,0,0,2.7,1.57c1.51.63,3.79,0,4.26,2.27.32,1.57,1.21,1.61,2.46,1.81a8.15,8.15,0,0,1,3.76,1.46c3.11,2.56,6.06,5.33,9,8.07,1.09,1,2,2.17,3.08,3.21,2,2,4.09,3.9,6.06,5.92,1.46,1.49,2.76,3.15,4.21,4.66,1.74,1.83,3.8,3.4,5.3,5.4,2.53,3.37,5.28,6.76,6.88,10.59,1,2.38,1.37,4.59,3.51,6.58,1.89,1.75,2.57,4.85,3.65,7.41a20.31,20.31,0,0,1,.67,3.13c.53,2.17-.31,4.82,2.29,6.29.43.24.59,1.17.67,1.81.38,3,.36,6.16,1.17,9.07.45,1.63,2.22,2.9,3.4,4.33l.47,3c-.48.46-1.33.88-1.38,1.37a36.1,36.1,0,0,0-.07,5.85c.29,3.88,1.05,7.76,1,11.63,0,2.84,1.35,5.64,0,8.59-.52,1.14.09,2.77.13,4.18a5.74,5.74,0,0,1-.22,1.13,35.54,35.54,0,0,0-.91,5.49c-.05,3.11.79,6.22-.44,9.32-.19.47.6,1.31.93,2l-.18,1c-2.05-.14-3,.6-3,2.87s.43,5-.52,6.87c-1.66,3.35-3.77,6.45-4.29,10.26,0,.21-.37.35-.46.57-.91,2.18-1.78,4.37-2.69,6.55-.47,1.12-1,2.24-1.49,3.32-.63,1.28-1.31,2.55-2,3.8-1.23,2.2-2.47,4.4-3.75,6.57a1.33,1.33,0,0,1-.87.46c-1.75.28-2.06,1.47-1.87,2.94.22,1.7-.59,2.75-1.87,3.77a48.6,48.6,0,0,0-4.68,4.43,3.17,3.17,0,0,0-.45,1.62c-.32,2.09-.84,3.94-2.85,5.25a21.54,21.54,0,0,0-3.62,3.66c-2.68,2.89-4.93,6.38-8.09,8.56-4,2.72-6.28,7.84-11.82,8.27-.31,0-.66.5-.87.84-2,3.33-4.7,5.67-8.82,5.93a2.47,2.47,0,0,0-1.37.89c-2.4,2.62-5.08,4.76-8.64,5.6a8.79,8.79,0,0,0-1.77.81c-1.81.89-3.57,1.87-5.42,2.67-2.23,1-5.45-.4-6.69,2.92-.1.27-.71.4-1.11.49-3.22.75-6.46.89-9.65,2.39s-7.2,1.55-10.86,2.17c-1.71.29-3,.85-2.92,2.92l-1.47.17c-2.89-2.4-5.22-2.09-6,.81l-2,.15c-1.32-.51-2.62-1.39-4-1.46-5.3-.27-10.6,1.2-16-.34-1.25-.36-4.09-.7-5.07,1.82l-1-.09c-1.27-2.53-3.23-3-6.36-1.81-.89-.93-1.61-2.36-2.53-2.5-3-.47-6-.31-9-.71-1.38-.19-2.65-1.12-4-1.73a10,10,0,0,0-2.49-1.16c-3-.43-6.44.3-8.33-3.16a1.1,1.1,0,0,0-.87-.35c-3.54.21-6.46-1.16-9.54-2.87-6-3.36-12.57-5.81-17.71-10.66a8.23,8.23,0,0,0-2-.9,17.32,17.32,0,0,1-2.8-1.52,75.49,75.49,0,0,1-12.19-11.36c-1-1.17-3-1.45-3-3.59,0-.15-.36-.45-.54-.45-3.11,0-3-3.59-5.47-4.74s-4.22-4-6.16-6.25-4.25-4.1-5-6.57c-.85-2.86-3.26-4.2-4.6-6.5a25.94,25.94,0,0,1-2.44-4.91,5.57,5.57,0,0,0-.91-1.86c-1.58-1.87-3.76-3.43-4.77-5.55-1.86-3.87-3-8.09-4.55-12.1-.8-2-2.06-3.89-2.88-5.92-1.17-2.9-2.15-5.87-3.15-8.83a11.39,11.39,0,0,1-.72-3.14c-.15-4-1.92-7.39-3.94-10.72a5.69,5.69,0,0,0,.78-2,79.23,79.23,0,0,0-.43-8.18c-.23-1.93-1-3.71-3.38-3.92l-.13-1.48c2.39-2.35,2-6.11-.71-7l-.27-6.48A3.26,3.26,0,0,0,165,249c.18-2.6.45-5.21.4-7.8a26.74,26.74,0,0,0-.9-4.68l.27-6.48c2.88-1.8,3.16-4.51.68-6.53l.16-2a5.11,5.11,0,0,0,3.28-6.34,7,7,0,0,1,.35-5.13c.51-1.27.79-2.68-1.23-3l.2-1.49a4.86,4.86,0,0,0,3.87-4.7c.43-4,.12-8.12,2.57-11.76.91-1.35,1-3.28,1.4-4.94.5-1.84.28-4,2.53-5.08.6-.3.75-1.69.94-2.61.39-1.93.31-4,1.06-5.81,1.93-4.55,4.2-8.95,6.34-13.41.21-.44.3-1.16.63-1.3,1.88-.79,1.78-2.57,2.37-4.08.94-2.39,2.55-4.58,3.15-7,.78-3.18,3.77-4.46,5.12-7.06.55-1.06,1.29-2,1.86-3.08s.91-2.5,1.72-3.43c1.45-1.66,3.18-3.07,4.78-4.6.16-.16.36-.46.31-.63-1.24-4.55,4.38-5.19,5-8.8.21-1.16,1.76-2.48,3-3a3.71,3.71,0,0,0,2.74-3.88,4.25,4.25,0,0,1,1.22-2.36c1.31-1.47,2.8-2.79,4.15-4.23,1-1.08,1.81-2.35,2.85-3.38,3-2.9,6-5.72,9-8.58,2.69-2.57,4.73-6,9-6.4a1.42,1.42,0,0,0,1-.9c.12-1.63,1.07-2.05,2.51-2.12.36,0,.71-.58,1-.91l2.41-2.36c.38-.37.77-.73,1.17-1.08,2-1.78,3.81-4.41,6.16-5.12,3.47-1.06,5.15-4,8-5.63A10.79,10.79,0,0,1,268.37,66c1.94-.53,4-.53,5-2.91.39-.86,2.39-1.66,3.43-1.44,2.12.45,3-.16,3.27-2.14a1.21,1.21,0,0,1,.56-.78c2.44-1.3,4.88-2.6,7.35-3.82,2.7-1.34,5.64-2.3,8.1-4,2.95-2,5.75-3.76,9.51-3.1.41.07,1.18-.59,1.43-1.09,1-2.06,2.76-2.71,4.89-2.8.72,0,1.74,0,2.11-.43,2.82-3.25,6.64-2.72,10.42-2.94.21-2.26,1.93-2.7,3.8-3a24.17,24.17,0,0,0,3.9-.68c1.77-.57,3.42-1.43,3.82-3.54l.66-.11a14.39,14.39,0,0,0,3.83,1,8.05,8.05,0,0,0,4.5-1C346.48,32.2,349.44,32.93,349.5,30Z" transform="translate(-0.5 -0.5)"/><path class="cls-2" d="M412.08,25l.8.08,0,.24-.8,0Z" transform="translate(-0.5 -0.5)"/><path class="cls-1" d="M336,33.43c-.4,2.12-2,3-3.82,3.54a24.17,24.17,0,0,1-3.9.68c-1.87.27-3.59.71-3.8,3-3.78.22-7.6-.31-10.42,2.94-.38.43-1.39.4-2.11.43-2.13.09-3.86.74-4.89,2.8-.25.5-1,1.16-1.43,1.09-3.76-.66-6.57,1.09-9.51,3.1-2.46,1.68-5.4,2.64-8.1,4-2.47,1.23-4.91,2.52-7.35,3.82a1.21,1.21,0,0,0-.56.78c-.29,2-1.14,2.58-3.27,2.14-1-.22-3,.57-3.43,1.44-1.07,2.38-3.09,2.38-5,2.91a10.79,10.79,0,0,0-2.26,1.26c-2.82,1.6-4.49,4.57-8,5.63-2.36.72-4.13,3.35-6.16,5.12-.4.35-.79.71-1.17,1.08l-2.41,2.36c-.34.33-.68.89-1,.91-1.44.06-2.38.48-2.51,2.12a1.42,1.42,0,0,1-1,.9c-4.28.37-6.32,3.84-9,6.4-3,2.86-6,5.68-9,8.58-1,1-1.85,2.3-2.85,3.38-1.35,1.45-2.84,2.76-4.15,4.23a4.25,4.25,0,0,0-1.22,2.36,3.71,3.71,0,0,1-2.74,3.88c-1.23.48-2.79,1.79-3,3-.65,3.61-6.27,4.25-5,8.8,0,.17-.15.47-.31.63-1.6,1.53-3.34,2.94-4.78,4.6-.81.93-1.11,2.3-1.72,3.43s-1.31,2-1.86,3.08c-1.35,2.6-4.34,3.88-5.12,7.06-.6,2.45-2.21,4.63-3.15,7-.59,1.51-.49,3.29-2.37,4.08-.33.14-.42.85-.63,1.3-2.13,4.46-4.41,8.86-6.34,13.41-.75,1.77-.67,3.87-1.06,5.81-.19.92-.34,2.31-.94,2.61-2.25,1.11-2,3.23-2.53,5.08-.45,1.66-.49,3.59-1.4,4.94-2.46,3.64-2.14,7.77-2.57,11.76a4.86,4.86,0,0,1-3.87,4.7,196.43,196.43,0,0,1,13.42-42A220.71,220.71,0,0,1,269.8,62.66a267.92,267.92,0,0,1,63.06-28.51C333.89,33.84,335,33.66,336,33.43Z" transform="translate(-0.5 -0.5)"/><path class="cls-1" d="M165.57,265c2.39.21,3.15,2,3.38,3.92a79.23,79.23,0,0,1,.43,8.18,5.69,5.69,0,0,1-.78,2c2,3.34,3.79,6.71,3.94,10.72a11.39,11.39,0,0,0,.72,3.14c1,3,2,5.94,3.15,8.83.82,2,2.08,3.88,2.88,5.92,1.58,4,2.69,8.23,4.55,12.1,1,2.12,3.19,3.68,4.77,5.55a5.57,5.57,0,0,1,.91,1.86,25.94,25.94,0,0,0,2.44,4.91c1.34,2.3,3.75,3.65,4.6,6.5.73,2.47,3.16,4.48,5,6.57s3.67,5.09,6.16,6.25,2.36,4.76,5.47,4.74c.19,0,.55.3.54.45-.08,2.15,2,2.42,3,3.59a75.49,75.49,0,0,0,12.19,11.36,17.32,17.32,0,0,0,2.8,1.52,8.23,8.23,0,0,1,2,.9c5.14,4.85,11.68,7.3,17.71,10.66,3.08,1.71,6,3.08,9.54,2.87a1.1,1.1,0,0,1,.87.35c1.89,3.46,5.3,2.73,8.33,3.16a10,10,0,0,1,2.49,1.16c1.32.61,2.59,1.54,4,1.73,3,.41,6,.24,9,.71.92.15,1.64,1.57,2.53,2.5,3.13-1.23,5.09-.73,6.36,1.81-6.87-1.2-13.9-1.82-20.58-3.71-41.13-11.65-71.34-36.92-91.42-74.46-9.13-17.07-14.35-35.41-16.93-54.54A8.69,8.69,0,0,1,165.57,265Z" transform="translate(-0.5 -0.5)"/><path class="cls-1" d="M443,237c-1.18-1.43-3-2.7-3.4-4.33-.8-2.91-.78-6-1.17-9.07-.08-.64-.24-1.56-.67-1.81-2.61-1.48-1.77-4.12-2.29-6.29a20.31,20.31,0,0,0-.67-3.13c-1.08-2.56-1.76-5.65-3.65-7.41-2.14-2-2.52-4.21-3.51-6.58-1.6-3.83-4.35-7.22-6.88-10.59-1.5-2-3.56-3.57-5.3-5.4-1.44-1.51-2.74-3.16-4.21-4.66-2-2-4.06-3.93-6.06-5.92-1.05-1-2-2.21-3.08-3.21-3-2.74-5.91-5.51-9-8.07a8.15,8.15,0,0,0-3.76-1.46c-1.25-.21-2.14-.25-2.46-1.81-.46-2.29-2.75-1.64-4.26-2.27a19,19,0,0,1-2.7-1.57c-2.41-1.51-4.73-3.2-7.25-4.51-2.12-1.1-4.41-2-6.56-3-3.33-1.54-7.06-2.32-10.3-4.32-.73-.45-2,0-3-.17-1.7-.31-3.64.22-4.61-2.31-.37-1-2.86-1.18-4.42-1.62-1.27-.36-2.64-.39-3.86-.83-2.07-.74-3.75-2.17-6.31-2-2.36.15-3.62-2-3.62-4.29,0-4.14.22-8.29.54-12.42,0-.54,1.18-1,1.81-1.48-.17,4.48-.28,9-.54,13.43-.12,2,.83,2.61,2.64,3.06,21,5.3,40.87,13,58.78,25.37,27.22,18.74,43.63,44.46,49.63,76.9A13.75,13.75,0,0,1,443,237Z" transform="translate(-0.5 -0.5)"/><path class="cls-1" d="M330,397.91c-.13-2.08,1.21-2.63,2.92-2.92,3.66-.62,7.62-.64,10.86-2.17s6.43-1.65,9.65-2.39c.4-.09,1-.22,1.11-.49,1.24-3.32,4.46-2,6.69-2.92,1.85-.8,3.61-1.78,5.42-2.67a8.79,8.79,0,0,1,1.77-.81c3.56-.84,6.25-3,8.64-5.6a2.47,2.47,0,0,1,1.37-.89c4.12-.26,6.78-2.6,8.82-5.93.21-.34.56-.82.87-.84,5.54-.43,7.87-5.55,11.82-8.27,3.16-2.18,5.42-5.67,8.09-8.56a21.54,21.54,0,0,1,3.62-3.66c2-1.31,2.52-3.16,2.85-5.25a3.17,3.17,0,0,1,.45-1.62,48.6,48.6,0,0,1,4.68-4.43c1.29-1,2.09-2.07,1.87-3.77-.19-1.47.12-2.66,1.87-2.94a1.33,1.33,0,0,0,.87-.46c1.28-2.17,2.52-4.37,3.75-6.57.7-1.25,1.37-2.51,2-3.8.54-1.09,1-2.2,1.49-3.32.91-2.18,1.78-4.37,2.69-6.55.09-.22.43-.37.46-.57.52-3.82,2.62-6.92,4.29-10.26,1-1.91.6-4.56.52-6.87s.91-3,3-2.87c-2.16,7.4-3.72,15.05-6.58,22.17-14.31,35.53-38.75,61.47-74.17,76.59A116.46,116.46,0,0,1,330,397.91Z" transform="translate(-0.5 -0.5)"/><path class="cls-1" d="M442.59,289.53c-.33-.67-1.12-1.52-.93-2,1.23-3.09.39-6.21.44-9.32a35.54,35.54,0,0,1,.91-5.49,5.74,5.74,0,0,0,.22-1.13c0-1.41-.65-3-.13-4.18,1.34-2.94,0-5.75,0-8.59,0-3.87-.72-7.74-1-11.63a36.1,36.1,0,0,1,.07-5.85c0-.49.9-.92,1.38-1.37.45,3.11,1.06,6.21,1.33,9.34A136.47,136.47,0,0,1,443,288.63,5,5,0,0,1,442.59,289.53Z" transform="translate(-0.5 -0.5)"/><path class="cls-1" d="M295.49,399c1-2.52,3.82-2.18,5.07-1.82,5.38,1.55,10.68.07,16,.34,1.34.07,2.65,1,4,1.46-6.46.19-12.91.43-19.37.54A50.06,50.06,0,0,1,295.49,399Z" transform="translate(-0.5 -0.5)"/><path class="cls-1" d="M168,207c2,.36,1.74,1.77,1.23,3a7,7,0,0,0-.35,5.13,5.11,5.11,0,0,1-3.28,6.34Z" transform="translate(-0.5 -0.5)"/><path class="cls-1" d="M363.5,27.17a3.5,3.5,0,0,1-3.41,3c-2.3.23-4.59.65-6.89.71-.76,0-1.54-.85-2.31-1.32Z" transform="translate(-0.5 -0.5)"/><path class="cls-1" d="M349.5,30c-.06,3-3,2.25-4.52,3.35a8.05,8.05,0,0,1-4.5,1,14.39,14.39,0,0,1-3.83-1Z" transform="translate(-0.5 -0.5)"/><path class="cls-1" d="M164.46,236.48a26.74,26.74,0,0,1,.9,4.68c.05,2.6-.21,5.2-.4,7.8a3.26,3.26,0,0,1-.51,1.05Q164.46,243.25,164.46,236.48Z" transform="translate(-0.5 -0.5)"/><path class="cls-1" d="M164.73,256.5c2.72.92,3.1,4.68.71,7Z" transform="translate(-0.5 -0.5)"/><path class="cls-1" d="M165.42,223.47c2.48,2,2.19,4.73-.68,6.53Z" transform="translate(-0.5 -0.5)"/><path class="cls-1" d="M322.5,398.88c.81-2.9,3.14-3.21,6-.81Z" transform="translate(-0.5 -0.5)"/></g></g></svg>